<svg id="svg" version="1.1" width="400" height="400.8" xmlns="http://www.w3.org/2000/svg" xmlns:xlink="http://www.w3.org/1999/xlink" style="display: block;"><g id="svgg"><path id="path0" d="M188.200 21.205 C 187.100 21.391,184.517 21.736,182.460 21.973 C 180.403 22.209,178.569 22.495,178.386 22.609 C 178.202 22.723,176.825 22.987,175.326 23.196 C 172.146 23.640,170.297 24.084,162.600 26.248 C 152.993 28.950,143.562 32.932,133.400 38.578 C 108.159 52.599,85.040 79.360,74.805 106.400 C 74.097 108.270,73.362 110.160,73.171 110.600 C 72.108 113.048,69.266 123.049,68.453 127.200 C 68.217 128.410,67.748 130.750,67.411 132.400 C 67.075 134.050,66.687 136.570,66.550 138.000 C 66.413 139.430,66.053 141.583,65.750 142.784 C 65.062 145.515,64.973 163.076,65.636 165.203 C 65.876 165.971,66.322 168.040,66.628 169.800 C 67.492 174.764,68.997 181.275,70.188 185.200 C 70.555 186.410,71.009 187.940,71.196 188.600 C 71.879 191.008,75.714 201.462,77.579 206.000 C 80.473 213.044,85.866 224.284,89.407 230.653 C 91.347 234.144,93.382 237.810,93.929 238.800 C 94.476 239.790,95.855 241.860,96.994 243.400 C 98.133 244.940,100.490 248.155,102.232 250.545 C 103.974 252.934,109.090 259.888,113.600 265.999 C 118.110 272.109,123.500 279.424,125.577 282.254 C 130.239 288.606,137.118 297.942,145.000 308.612 C 148.300 313.080,153.070 319.556,155.600 323.003 C 158.130 326.450,161.370 330.857,162.800 332.798 C 164.230 334.739,169.222 341.518,173.893 347.863 C 196.946 379.176,195.915 378.000,200.321 378.000 C 204.388 378.000,205.633 376.852,214.197 365.200 C 217.027 361.350,221.516 355.251,224.171 351.647 C 226.827 348.042,230.536 343.002,232.413 340.447 C 234.290 337.891,237.290 333.820,239.078 331.400 C 240.867 328.980,244.046 324.660,246.142 321.800 C 248.238 318.940,250.498 315.880,251.162 315.000 C 251.827 314.120,253.154 312.320,254.111 311.000 C 255.069 309.680,257.115 306.890,258.659 304.800 C 260.203 302.710,264.581 296.770,268.387 291.600 C 272.194 286.430,275.976 281.300,276.791 280.200 C 277.606 279.100,279.967 275.889,282.037 273.064 C 284.106 270.240,288.014 264.930,290.719 261.264 C 297.583 251.965,297.833 251.625,302.093 245.800 C 305.867 240.641,311.048 231.856,315.304 223.400 C 317.371 219.295,318.194 217.559,320.995 211.400 C 322.934 207.136,328.800 192.253,328.800 191.597 C 328.800 191.373,328.960 190.877,329.156 190.495 C 329.352 190.113,329.906 188.450,330.388 186.800 C 330.869 185.150,331.429 183.387,331.632 182.881 C 331.834 182.376,331.999 181.566,331.998 181.081 C 331.997 180.597,332.252 179.390,332.565 178.400 C 333.138 176.585,333.798 173.490,334.965 167.147 C 335.834 162.421,335.856 146.341,335.000 141.865 C 334.670 140.140,334.400 137.962,334.400 137.025 C 334.400 136.087,334.222 134.798,334.005 134.160 C 333.787 133.522,333.431 131.830,333.213 130.400 C 332.830 127.885,332.562 126.683,331.337 122.000 C 329.766 115.994,326.951 107.425,325.620 104.600 C 325.413 104.160,324.856 102.900,324.383 101.800 C 323.106 98.832,318.939 90.605,317.796 88.794 C 317.248 87.926,316.800 87.107,316.800 86.974 C 316.800 86.390,308.265 74.219,305.256 70.514 C 294.175 56.868,275.294 41.669,261.400 35.212 C 254.399 31.958,251.960 30.879,249.200 29.814 C 248.210 29.432,246.809 28.867,246.086 28.560 C 245.364 28.252,244.515 28.000,244.200 28.000 C 243.885 28.000,243.036 27.752,242.314 27.449 C 239.126 26.111,229.260 23.684,222.800 22.649 C 220.710 22.314,217.740 21.830,216.200 21.573 C 212.841 21.013,191.034 20.727,188.200 21.205 M209.600 74.367 C 211.894 74.743,213.392 75.002,218.200 75.853 C 239.737 79.666,264.641 99.359,274.128 120.079 C 277.360 127.137,277.982 128.760,279.460 134.000 C 281.229 140.273,281.172 139.962,282.418 150.000 C 283.351 157.525,282.023 171.596,279.753 178.213 C 279.449 179.101,279.200 180.130,279.200 180.500 C 279.200 180.870,278.948 181.764,278.640 182.486 C 278.333 183.209,277.771 184.610,277.392 185.600 C 276.247 188.596,276.130 188.865,274.260 192.800 C 265.910 210.373,249.272 226.048,231.400 233.181 C 230.960 233.357,230.068 233.716,229.417 233.980 C 228.264 234.446,224.618 235.659,222.200 236.380 C 219.519 237.179,214.066 238.347,212.000 238.564 C 210.790 238.692,208.450 238.969,206.800 239.180 C 202.788 239.695,197.353 239.689,193.200 239.166 C 191.330 238.931,188.630 238.593,187.200 238.416 C 184.341 238.063,178.889 236.902,178.260 236.514 C 178.041 236.378,177.218 236.133,176.431 235.969 C 153.740 231.242,128.094 205.983,121.026 181.400 C 120.647 180.080,120.186 178.550,120.002 178.000 C 116.306 166.947,116.405 146.752,120.216 134.600 C 120.492 133.720,120.948 132.190,121.230 131.200 C 128.314 106.309,152.375 83.443,178.600 76.679 C 179.920 76.339,181.769 75.858,182.708 75.612 C 183.647 75.365,185.897 74.977,187.708 74.750 C 189.519 74.522,192.080 74.182,193.400 73.994 C 196.375 73.570,206.104 73.795,209.600 74.367 M216.400 97.263 C 209.578 98.374,205.542 100.651,201.217 105.829 C 199.576 107.793,198.136 109.490,198.016 109.600 C 197.800 109.799,197.061 110.683,186.828 123.000 C 178.947 132.485,177.711 134.599,176.545 140.600 C 173.843 154.505,183.592 171.425,198.101 178.011 C 200.874 179.270,201.719 178.627,207.739 170.669 C 209.780 167.972,209.833 168.065,205.633 166.950 C 193.402 163.705,186.597 149.607,192.920 140.616 C 197.257 134.450,215.871 113.034,217.542 112.289 C 228.198 107.537,243.588 119.328,242.709 131.570 C 242.441 135.296,241.785 136.343,233.429 146.365 C 225.475 155.905,225.686 155.551,226.631 157.812 C 227.900 160.849,228.783 166.105,228.791 170.676 C 228.804 177.021,228.471 177.104,235.108 169.100 C 237.799 165.855,242.205 160.565,244.900 157.345 C 251.900 148.981,253.329 147.184,254.273 145.553 C 263.338 129.894,250.821 106.017,229.800 98.873 C 227.815 98.198,220.014 96.744,219.000 96.860 C 218.780 96.885,217.610 97.066,216.400 97.263 M197.791 140.700 C 194.566 144.590,192.662 149.713,194.249 150.231 C 206.781 154.319,213.941 165.749,209.457 174.509 C 208.258 176.850,186.747 202.544,184.811 203.946 C 175.154 210.942,158.319 200.446,158.226 187.373 C 158.191 182.463,158.410 182.092,168.481 170.017 C 177.845 158.788,177.222 160.105,175.594 155.000 C 174.904 152.838,174.644 150.795,174.450 146.032 C 174.284 141.944,174.045 139.813,173.741 139.712 C 173.372 139.590,153.105 163.417,148.147 169.800 C 133.864 188.192,154.532 220.000,180.765 220.000 C 190.028 220.000,195.055 217.379,201.866 209.000 C 203.909 206.486,209.516 199.731,210.663 198.401 C 223.514 183.503,224.800 181.123,224.800 172.250 C 224.800 159.048,216.316 146.413,202.911 139.655 C 199.748 138.060,200.027 138.003,197.791 140.700 " stroke="none" fill="#ffffff" fill-rule="evenodd"></path><path id="path1" d="" stroke="none" fill="#ff0000" fill-rule="evenodd"></path><path id="path2" d="M384.400 174.254 C 376.370 177.454,369.350 180.259,368.800 180.489 C 367.608 180.987,366.136 181.578,364.900 182.054 C 363.151 182.727,361.792 183.297,361.105 183.647 C 360.723 183.841,360.226 184.000,360.001 184.000 C 359.776 184.000,358.828 184.341,357.896 184.757 C 356.963 185.174,349.990 187.972,342.400 190.976 C 328.880 196.327,326.800 197.393,326.800 198.971 C 326.800 199.261,326.428 200.376,325.974 201.449 C 324.922 203.934,324.783 204.268,322.994 208.600 C 320.714 214.120,315.855 224.248,312.920 229.600 C 307.208 240.018,307.027 240.317,303.618 244.985 C 302.178 246.957,299.880 250.107,298.512 251.985 C 297.144 253.863,295.486 256.120,294.829 257.000 C 293.496 258.785,288.234 265.912,283.311 272.600 C 281.530 275.020,278.341 279.340,276.224 282.200 C 274.108 285.060,270.272 290.280,267.700 293.800 C 262.938 300.317,250.946 316.584,249.565 318.400 C 249.147 318.950,248.229 320.210,247.526 321.200 C 246.823 322.190,243.439 326.780,240.006 331.400 C 232.494 341.510,222.107 355.610,221.000 357.201 C 220.560 357.833,217.447 362.074,214.082 366.624 C 210.718 371.175,208.029 374.963,208.108 375.041 C 208.187 375.120,215.080 372.472,223.426 369.156 C 239.117 362.922,239.665 362.703,241.500 361.946 C 242.105 361.697,242.960 361.361,243.400 361.200 C 243.840 361.039,244.695 360.703,245.300 360.454 C 245.905 360.204,246.805 359.844,247.300 359.654 C 247.795 359.463,248.650 359.119,249.200 358.890 C 249.750 358.660,257.130 355.740,265.600 352.400 C 274.070 349.060,281.450 346.140,282.000 345.910 C 282.550 345.681,283.360 345.361,283.800 345.200 C 284.240 345.039,285.095 344.703,285.700 344.454 C 286.305 344.204,287.205 343.844,287.700 343.654 C 288.195 343.463,289.095 343.103,289.700 342.854 C 290.305 342.604,291.205 342.236,291.700 342.036 C 292.624 341.662,322.761 329.776,324.200 329.217 C 324.640 329.047,325.495 328.703,326.100 328.454 C 326.705 328.204,327.695 327.796,328.300 327.546 C 328.905 327.297,329.805 326.937,330.300 326.746 C 330.795 326.556,331.695 326.196,332.300 325.946 C 332.905 325.697,333.760 325.353,334.200 325.183 C 334.640 325.012,341.930 322.140,350.400 318.800 C 358.870 315.460,366.160 312.588,366.600 312.417 C 367.040 312.247,367.895 311.903,368.500 311.654 C 369.105 311.404,370.050 311.020,370.600 310.800 C 371.150 310.580,372.050 310.220,372.600 310.000 C 373.150 309.780,374.050 309.420,374.600 309.200 C 375.150 308.980,376.005 308.636,376.500 308.436 C 376.995 308.236,382.485 306.057,388.700 303.595 L 400.000 299.117 400.000 233.758 C 400.000 181.728,399.898 168.404,399.500 168.419 C 399.225 168.429,392.430 171.055,384.400 174.254 " stroke="none" fill="#cc7d7d" fill-rule="evenodd"></path><path id="path3" d="" stroke="none" fill="#ff5555" fill-rule="evenodd"></path><path id="path4" d="M12.900 0.288 C 12.185 0.378,11.600 0.619,11.600 0.825 C 11.600 1.031,11.240 1.200,10.800 1.200 C 10.360 1.200,10.000 1.380,10.000 1.600 C 10.000 1.820,9.764 2.000,9.475 2.000 C 9.187 2.000,8.564 2.360,8.092 2.800 C 7.620 3.240,7.082 3.600,6.898 3.600 C 6.486 3.600,3.600 6.517,3.600 6.934 C 3.600 7.099,3.240 7.620,2.800 8.092 C 2.360 8.564,2.000 9.187,2.000 9.475 C 2.000 9.764,1.820 10.000,1.600 10.000 C 1.380 10.000,1.200 10.345,1.200 10.767 C 1.200 11.188,0.975 11.608,0.700 11.700 C -0.036 11.945,-0.036 388.855,0.700 389.100 C 0.975 389.192,1.200 389.612,1.200 390.033 C 1.200 390.455,1.380 390.800,1.600 390.800 C 1.820 390.800,2.000 391.036,2.000 391.325 C 2.000 391.613,2.360 392.236,2.800 392.708 C 3.240 393.180,3.600 393.709,3.601 393.883 C 3.601 394.231,6.655 397.200,7.012 397.200 C 7.134 397.200,7.620 397.560,8.092 398.000 C 8.564 398.440,9.187 398.800,9.475 398.800 C 9.764 398.800,10.000 398.980,10.000 399.200 C 10.000 399.420,10.345 399.600,10.767 399.600 C 11.188 399.600,11.608 399.825,11.700 400.100 C 11.833 400.499,49.820 400.600,199.854 400.600 L 387.842 400.600 390.521 399.240 C 391.994 398.492,393.200 397.727,393.200 397.540 C 393.200 397.353,393.433 397.200,393.719 397.200 C 394.367 397.200,397.200 394.338,397.200 393.683 C 397.200 393.417,397.359 393.200,397.553 393.200 C 397.747 393.200,398.377 392.237,398.953 391.060 L 400.000 388.920 400.000 344.017 C 400.000 308.256,399.898 299.155,399.500 299.312 C 396.486 300.502,377.178 308.162,376.500 308.436 C 376.005 308.636,375.195 308.956,374.700 309.146 C 374.205 309.337,373.260 309.721,372.600 310.000 C 371.072 310.646,369.619 311.227,368.600 311.600 C 368.160 311.761,367.350 312.081,366.800 312.310 C 365.981 312.652,336.912 324.130,334.200 325.183 C 332.818 325.719,331.443 326.275,330.200 326.800 C 329.540 327.079,328.595 327.463,328.100 327.654 C 327.605 327.844,326.705 328.204,326.100 328.454 C 325.495 328.703,324.640 329.047,324.200 329.217 C 322.761 329.776,292.624 341.662,291.700 342.036 C 291.205 342.236,290.395 342.556,289.900 342.746 C 288.754 343.188,287.300 343.769,285.900 344.346 C 285.295 344.596,284.350 344.980,283.800 345.200 C 283.250 345.420,282.395 345.764,281.900 345.964 C 281.405 346.164,274.070 349.060,265.600 352.400 C 257.130 355.740,249.750 358.660,249.200 358.890 C 248.650 359.119,247.795 359.463,247.300 359.654 C 246.805 359.844,245.995 360.156,245.500 360.346 C 245.005 360.537,244.105 360.897,243.500 361.146 C 242.895 361.396,241.950 361.780,241.400 362.000 C 240.850 362.220,239.995 362.564,239.500 362.764 C 227.828 367.478,208.215 375.149,208.108 375.041 C 208.029 374.963,210.718 371.175,214.082 366.624 C 217.447 362.074,220.560 357.833,221.000 357.201 C 222.107 355.610,232.494 341.510,240.006 331.400 C 243.439 326.780,246.823 322.190,247.526 321.200 C 248.229 320.210,249.147 318.950,249.565 318.400 C 250.946 316.584,262.938 300.317,267.700 293.800 C 270.272 290.280,274.108 285.060,276.224 282.200 C 278.341 279.340,281.530 275.020,283.311 272.600 C 288.234 265.912,293.496 258.785,294.829 257.000 C 295.486 256.120,297.144 253.863,298.512 251.985 C 299.880 250.107,302.178 246.957,303.618 244.985 C 307.027 240.317,307.208 240.018,312.920 229.600 C 315.855 224.248,320.714 214.120,322.994 208.600 C 324.783 204.268,324.922 203.934,325.974 201.449 C 326.428 200.376,326.800 199.261,326.800 198.971 C 326.800 197.393,328.880 196.327,342.400 190.976 C 349.990 187.972,356.963 185.174,357.896 184.757 C 358.828 184.341,359.776 184.000,360.001 184.000 C 360.226 184.000,360.723 183.841,361.105 183.647 C 361.487 183.452,362.295 183.092,362.900 182.847 C 363.505 182.601,364.495 182.196,365.100 181.946 C 365.705 181.697,366.605 181.337,367.100 181.146 C 367.595 180.956,368.405 180.635,368.900 180.433 C 369.395 180.232,376.588 177.397,384.885 174.133 L 399.969 168.200 399.983 90.000 L 399.997 11.800 399.082 10.000 C 397.237 6.370,394.605 3.767,390.423 1.438 L 388.200 0.200 201.200 0.163 C 98.350 0.143,13.615 0.199,12.900 0.288 M216.200 21.573 C 217.740 21.830,220.710 22.314,222.800 22.649 C 229.260 23.684,239.126 26.111,242.314 27.449 C 243.036 27.752,243.885 28.000,244.200 28.000 C 244.515 28.000,245.364 28.252,246.086 28.560 C 246.809 28.867,248.210 29.432,249.200 29.814 C 251.960 30.879,254.399 31.958,261.400 35.212 C 275.294 41.669,294.175 56.868,305.256 70.514 C 308.265 74.219,316.800 86.390,316.800 86.974 C 316.800 87.107,317.248 87.926,317.796 88.794 C 318.939 90.605,323.106 98.832,324.383 101.800 C 324.856 102.900,325.413 104.160,325.620 104.600 C 326.951 107.425,329.766 115.994,331.337 122.000 C 332.562 126.683,332.830 127.885,333.213 130.400 C 333.431 131.830,333.787 133.522,334.005 134.160 C 334.222 134.798,334.400 136.087,334.400 137.025 C 334.400 137.962,334.670 140.140,335.000 141.865 C 335.856 146.341,335.834 162.421,334.965 167.147 C 333.798 173.490,333.138 176.585,332.565 178.400 C 332.252 179.390,331.997 180.597,331.998 181.081 C 331.999 181.566,331.834 182.376,331.632 182.881 C 331.429 183.387,330.869 185.150,330.388 186.800 C 329.906 188.450,329.352 190.113,329.156 190.495 C 328.960 190.877,328.800 191.373,328.800 191.597 C 328.800 192.253,322.934 207.136,320.995 211.400 C 318.194 217.559,317.371 219.295,315.304 223.400 C 311.048 231.856,305.867 240.641,302.093 245.800 C 297.833 251.625,297.583 251.965,290.719 261.264 C 288.014 264.930,284.106 270.240,282.037 273.064 C 279.967 275.889,277.606 279.100,276.791 280.200 C 275.976 281.300,272.194 286.430,268.387 291.600 C 264.581 296.770,260.203 302.710,258.659 304.800 C 257.115 306.890,255.069 309.680,254.111 311.000 C 253.154 312.320,251.827 314.120,251.162 315.000 C 250.498 315.880,248.238 318.940,246.142 321.800 C 244.046 324.660,240.867 328.980,239.078 331.400 C 237.290 333.820,234.290 337.891,232.413 340.447 C 230.536 343.002,226.827 348.042,224.171 351.647 C 221.516 355.251,217.027 361.350,214.197 365.200 C 205.633 376.852,204.388 378.000,200.321 378.000 C 195.915 378.000,196.946 379.176,173.893 347.863 C 169.222 341.518,164.230 334.739,162.800 332.798 C 161.370 330.857,158.130 326.450,155.600 323.003 C 153.070 319.556,148.300 313.080,145.000 308.612 C 137.118 297.942,130.239 288.606,125.577 282.254 C 123.500 279.424,118.110 272.109,113.600 265.999 C 109.090 259.888,103.974 252.934,102.232 250.545 C 100.490 248.155,98.133 244.940,96.994 243.400 C 95.855 241.860,94.476 239.790,93.929 238.800 C 93.382 237.810,91.347 234.144,89.407 230.653 C 85.866 224.284,80.473 213.044,77.579 206.000 C 75.714 201.462,71.879 191.008,71.196 188.600 C 71.009 187.940,70.555 186.410,70.188 185.200 C 68.997 181.275,67.492 174.764,66.628 169.800 C 66.322 168.040,65.876 165.971,65.636 165.203 C 64.973 163.076,65.062 145.515,65.750 142.784 C 66.053 141.583,66.413 139.430,66.550 138.000 C 66.687 136.570,67.075 134.050,67.411 132.400 C 67.748 130.750,68.217 128.410,68.453 127.200 C 69.266 123.049,72.108 113.048,73.171 110.600 C 73.362 110.160,74.097 108.270,74.805 106.400 C 85.040 79.360,108.159 52.599,133.400 38.578 C 143.562 32.932,152.993 28.950,162.600 26.248 C 170.297 24.084,172.146 23.640,175.326 23.196 C 176.825 22.987,178.202 22.723,178.386 22.609 C 178.569 22.495,180.403 22.209,182.460 21.973 C 184.517 21.736,187.100 21.391,188.200 21.205 C 191.034 20.727,212.841 21.013,216.200 21.573 M193.400 73.994 C 192.080 74.182,189.519 74.522,187.708 74.750 C 185.897 74.977,183.647 75.365,182.708 75.612 C 181.769 75.858,179.920 76.339,178.600 76.679 C 152.375 83.443,128.314 106.309,121.230 131.200 C 120.948 132.190,120.492 133.720,120.216 134.600 C 116.405 146.752,116.306 166.947,120.002 178.000 C 120.186 178.550,120.647 180.080,121.026 181.400 C 128.094 205.983,153.740 231.242,176.431 235.969 C 177.218 236.133,178.041 236.378,178.260 236.514 C 178.889 236.902,184.341 238.063,187.200 238.416 C 188.630 238.593,191.330 238.931,193.200 239.166 C 197.353 239.689,202.788 239.695,206.800 239.180 C 208.450 238.969,210.790 238.692,212.000 238.564 C 214.066 238.347,219.519 237.179,222.200 236.380 C 224.618 235.659,228.264 234.446,229.417 233.980 C 230.068 233.716,230.960 233.357,231.400 233.181 C 249.272 226.048,265.910 210.373,274.260 192.800 C 276.130 188.865,276.247 188.596,277.392 185.600 C 277.771 184.610,278.333 183.209,278.640 182.486 C 278.948 181.764,279.200 180.870,279.200 180.500 C 279.200 180.130,279.449 179.101,279.753 178.213 C 282.023 171.596,283.351 157.525,282.418 150.000 C 281.172 139.962,281.229 140.273,279.460 134.000 C 277.982 128.760,277.360 127.137,274.128 120.079 C 264.641 99.359,239.737 79.666,218.200 75.853 C 213.392 75.002,211.894 74.743,209.600 74.367 C 206.104 73.795,196.375 73.570,193.400 73.994 M222.800 97.373 C 227.705 98.179,229.086 98.521,231.800 99.598 C 251.695 107.500,262.963 130.542,254.273 145.553 C 253.329 147.184,251.900 148.981,244.900 157.345 C 242.205 160.565,237.799 165.855,235.108 169.100 C 228.471 177.104,228.804 177.021,228.791 170.676 C 228.783 166.105,227.900 160.849,226.631 157.812 C 225.686 155.551,225.475 155.905,233.429 146.365 C 241.785 136.343,242.441 135.296,242.709 131.570 C 243.588 119.328,228.198 107.537,217.542 112.289 C 215.871 113.034,197.257 134.450,192.920 140.616 C 186.597 149.607,193.402 163.705,205.633 166.950 C 209.833 168.065,209.780 167.972,207.739 170.669 C 201.719 178.627,200.874 179.270,198.101 178.011 C 183.592 171.425,173.843 154.505,176.545 140.600 C 177.711 134.599,178.947 132.485,186.828 123.000 C 197.061 110.683,197.800 109.799,198.016 109.600 C 198.136 109.490,199.576 107.793,201.217 105.829 C 205.932 100.184,210.633 97.813,219.000 96.860 C 219.220 96.834,220.930 97.065,222.800 97.373 M202.911 139.655 C 216.316 146.413,224.800 159.048,224.800 172.250 C 224.800 181.123,223.514 183.503,210.663 198.401 C 209.516 199.731,203.909 206.486,201.866 209.000 C 195.055 217.379,190.028 220.000,180.765 220.000 C 154.532 220.000,133.864 188.192,148.147 169.800 C 153.105 163.417,173.372 139.590,173.741 139.712 C 174.045 139.813,174.284 141.944,174.450 146.032 C 174.644 150.795,174.904 152.838,175.594 155.000 C 177.222 160.105,177.845 158.788,168.481 170.017 C 158.410 182.092,158.191 182.463,158.226 187.373 C 158.319 200.446,175.154 210.942,184.811 203.946 C 186.747 202.544,208.258 176.850,209.457 174.509 C 213.941 165.749,206.781 154.319,194.249 150.231 C 192.662 149.713,194.566 144.590,197.791 140.700 C 200.027 138.003,199.748 138.060,202.911 139.655 " stroke="none" fill="#ff9999" fill-rule="evenodd"></path></g></svg>